<?xml version="1.0" encoding="utf-8"?>
<!-- Generator: Adobe Illustrator 24.1.3, SVG Export Plug-In . SVG Version: 6.00 Build 0)  -->
<svg version="1.1" id="Layer_1" xmlns="http://www.w3.org/2000/svg" xmlns:xlink="http://www.w3.org/1999/xlink" x="0px" y="0px"
	 viewBox="0 0 192 192" style="enable-background:new 0 0 192 192;" xml:space="preserve">
<style type="text/css">
	.st0{fill:#BCBBBB;}
	.st1{fill:#F48024;}
</style>
<g>
	<path class="st0" d="M83.2,62h8.5C94,62,96,60,96,57.7s-1.9-4.2-4.2-4.2h-8.5c-2.3,0-4.2,1.9-4.2,4.2S80.9,62,83.2,62z"/>
	<path class="st0" d="M83.2,79H96v8.5h-4.2c-2.3,0-4.2,1.9-4.2,4.2s1.9,4.2,4.2,4.2h17c2.3,0,4.2-1.9,4.2-4.2s-1.9-4.2-4.2-4.2h-4.2
		V79h4.2c2.3,0,4.2-1.9,4.2-4.2s-1.9-4.2-4.2-4.2H83.2c-2.3,0-4.2,1.9-4.2,4.2S80.9,79,83.2,79z"/>
	<path class="st0" d="M70.5,83.2c0-2.3-1.9-4.2-4.2-4.2h-8.5c-2.3,0-4.2,1.9-4.2,4.2c0,2.3,1.9,4.2,4.2,4.2H62v4.2
		c0,2.3,1.9,4.2,4.2,4.2h8.5c2.3,0,4.2-1.9,4.2-4.2s-1.9-4.2-4.2-4.2h-4.2V83.2z"/>
	<path class="st0" d="M125.7,129.9h17c2.3,0,4.2-1.9,4.2-4.2v-4.2h4.2c2.3,0,4.2-1.9,4.2-4.2c0-2.3-1.9-4.2-4.2-4.2h-8.5
		c-2.3,0-4.2,1.9-4.2,4.2v4.2H130v-4.2c0-2.3-1.9-4.2-4.2-4.2c-2.3,0-4.2,1.9-4.2,4.2v8.5C121.5,128,123.4,129.9,125.7,129.9z"/>
	<path class="st0" d="M151.2,104.4c2.3,0,4.2-1.9,4.2-4.2v-17c0-2.3-1.9-4.2-4.2-4.2s-4.2,1.9-4.2,4.2v4.2h-4.2
		c-2.3,0-4.2,1.9-4.2,4.2s1.9,4.2,4.2,4.2h4.2v4.2C147,102.5,148.8,104.4,151.2,104.4z"/>
	<path class="st0" d="M83.2,45h21.2v12.7c0,2.3,1.9,4.2,4.2,4.2s4.2-1.9,4.2-4.2v-17c0-2.3-1.9-4.2-4.2-4.2H83.2
		c-2.3,0-4.2,1.9-4.2,4.2C79,43,80.9,45,83.2,45z"/>
	<path class="st1" d="M131.4,70.5h14.2c5.5,0,10-4.5,10-10V46.4c0-5.5-4.5-10-10-10h-14.2c-5.5,0-10,4.5-10,10v14.2
		C121.5,66.1,125.8,70.5,131.4,70.5z M130,46.4c0-0.7,0.6-1.5,1.5-1.5h14.2c0.7,0,1.5,0.6,1.5,1.5v14.2c0,0.7-0.6,1.5-1.5,1.5h-14.2
		c-0.7,0-1.5-0.6-1.5-1.5C130,60.5,130,46.4,130,46.4z"/>
	<path class="st0" d="M125.7,104.4c2.3,0,4.2-1.9,4.2-4.2v-17c0-2.3-1.9-4.2-4.2-4.2c-2.3,0-4.2,1.9-4.2,4.2v17
		C121.5,102.5,123.4,104.4,125.7,104.4z"/>
	<path class="st0" d="M40.8,112.9h17c2.3,0,4.2-1.9,4.2-4.2s-1.9-4.2-4.2-4.2h-17c-2.3,0-4.2,1.9-4.2,4.2S38.5,112.9,40.8,112.9z"/>
	<path class="st0" d="M87.5,108.7c0-2.3-1.9-4.2-4.2-4.2h-8.5c-2.3,0-4.2,1.9-4.2,4.2s1.9,4.2,4.2,4.2h8.5
		C85.6,112.9,87.5,111,87.5,108.7z"/>
	<path class="st0" d="M40.8,95.9c2.3,0,4.2-1.9,4.2-4.2v-8.5c0-2.3-1.9-4.2-4.2-4.2c-2.3,0-4.2,1.9-4.2,4.2v8.5
		C36.5,94,38.5,95.9,40.8,95.9z"/>
	<path class="st0" d="M155.4,151.2v-8.5c0-2.3-1.9-4.2-4.2-4.2s-4.2,1.9-4.2,4.2v4.2h-8.5v-4.2c0-2.3-1.9-4.2-4.2-4.2
		c-2.3,0-4.2,1.9-4.2,4.2v4.2h-8.5v-4.2c0-2.3-1.9-4.2-4.2-4.2c-2.3,0-4.2,1.9-4.2,4.2v8.5c0,2.3,1.9,4.2,4.2,4.2h34
		C153.5,155.4,155.4,153.5,155.4,151.2z"/>
	<path class="st0" d="M100.2,138.4h-17c-2.3,0-4.2,1.9-4.2,4.2v8.5c0,2.3,1.9,4.2,4.2,4.2c2.3,0,4.2-1.9,4.2-4.2v-4.2h12.7
		c2.3,0,4.2-1.9,4.2-4.2S102.5,138.4,100.2,138.4z"/>
	<path class="st0" d="M113,108.7c0-2.3-1.9-4.2-4.2-4.2h-8.5c-2.3,0-4.2,1.9-4.2,4.2s1.9,4.2,4.2,4.2h4.2v8.5H83.2
		c-2.3,0-4.2,1.9-4.2,4.2s1.9,4.2,4.2,4.2h25.5c2.3,0,4.2-1.9,4.2-4.2V108.7L113,108.7z"/>
	<path class="st1" d="M36.5,46.4v14.2c0,5.5,4.5,10,10,10h14.2c5.5,0,10-4.5,10-10V46.4c0-5.5-4.5-10-10-10H46.5
		C41,36.5,36.5,41,36.5,46.4z M62,46.4v14.2c0,0.7-0.6,1.5-1.5,1.5H46.5c-0.7,0-1.5-0.6-1.5-1.5V46.4c0-0.7,0.6-1.5,1.5-1.5h14.2
		C61.4,45,62,45.6,62,46.4z"/>
	<path class="st1" d="M60.6,121.4H46.5c-5.5,0-10,4.5-10,10v14.2c0,5.5,4.5,10,10,10h14.2c5.5,0,10-4.5,10-10v-14.2
		C70.5,125.8,66.1,121.4,60.6,121.4z M62,145.4c0,0.7-0.6,1.5-1.5,1.5H46.5c-0.7,0-1.5-0.6-1.5-1.5v-14.2c0-0.7,0.6-1.5,1.5-1.5
		h14.2c0.7,0,1.5,0.6,1.5,1.5v14.2H62z"/>
</g>
</svg>
